<svg xmlns="http://www.w3.org/2000/svg" width="720" height="540" viewBox="0 0 720 540" role="img" aria-labelledby="title desc">
  <title id="title">Exterior detailing illustration</title>
  <desc id="desc">A stylized vehicle side profile with gloss highlights representing exterior detail work.</desc>
  <rect width="720" height="540" rx="32" fill="#0c1420"/>
  <circle cx="142" cy="116" r="88" fill="#34d399" fill-opacity="0.12"/>
  <circle cx="566" cy="134" r="104" fill="#f97316" fill-opacity="0.18"/>
  <path d="M122 322C160 274 230 246 318 238H444C507 238 561 269 592 322L626 374H94L122 322Z" fill="#172334" stroke="#475569" stroke-width="4"/>
  <path d="M200 228L270 184H450C488 184 522 202 548 236L564 258H184L200 228Z" fill="#111827"/>
  <path d="M146 312H598" stroke="#f8fafc" stroke-width="7" stroke-linecap="round" stroke-opacity="0.8"/>
  <path d="M178 287H235" stroke="#f97316" stroke-width="6" stroke-linecap="round"/>
  <path d="M484 287H544" stroke="#f97316" stroke-width="6" stroke-linecap="round"/>
  <circle cx="220" cy="374" r="52" fill="#020617" stroke="#cbd5e1" stroke-width="4"/>
  <circle cx="508" cy="374" r="52" fill="#020617" stroke="#cbd5e1" stroke-width="4"/>
  <text x="68" y="484" fill="#f8fafc" font-family="Bahnschrift, Franklin Gothic Medium, Trebuchet MS, sans-serif" font-size="28" letter-spacing="4">EXTERIOR DETAIL</text>
</svg>