<svg xmlns="http://www.w3.org/2000/svg" width="720" height="540" viewBox="0 0 720 540" role="img" aria-labelledby="title desc">
  <title id="title">Mobile detailing illustration</title>
  <desc id="desc">A stylized van, mobile setup, and driveway-like environment representing on-site service.</desc>
  <rect width="720" height="540" rx="32" fill="#111827"/>
  <rect x="86" y="310" width="548" height="110" rx="24" fill="#172334"/>
  <path d="M104 304H356L408 216H520L612 304V390H104Z" fill="#1f2937" stroke="#475569" stroke-width="4"/>
  <rect x="176" y="236" width="110" height="56" rx="14" fill="#0f172a"/>
  <rect x="308" y="236" width="128" height="56" rx="14" fill="#0f172a"/>
  <rect x="560" y="246" width="28" height="74" rx="12" fill="#f97316"/>
  <circle cx="220" cy="388" r="48" fill="#020617" stroke="#cbd5e1" stroke-width="4"/>
  <circle cx="522" cy="388" r="48" fill="#020617" stroke="#cbd5e1" stroke-width="4"/>
  <path d="M128 160L184 104L248 160" fill="none" stroke="#34d399" stroke-width="10" stroke-linecap="round" stroke-linejoin="round"/>
  <rect x="260" y="96" width="122" height="100" rx="22" fill="#0f172a" stroke="#334155" stroke-width="4"/>
  <path d="M286 132H356" stroke="#f8fafc" stroke-width="8" stroke-linecap="round"/>
  <path d="M286 158H336" stroke="#94a3b8" stroke-width="8" stroke-linecap="round"/>
  <text x="68" y="484" fill="#f8fafc" font-family="Bahnschrift, Franklin Gothic Medium, Trebuchet MS, sans-serif" font-size="28" letter-spacing="4">MOBILE DETAILING</text>
</svg>