<svg xmlns="http://www.w3.org/2000/svg" width="720" height="560" viewBox="0 0 720 560" role="img" aria-labelledby="title desc">
  <title id="title">Paradise Auto Detailing hero illustration</title>
  <desc id="desc">A stylized vehicle silhouette with detailing accents and a warm premium gradient.</desc>
  <defs>
    <linearGradient id="bg" x1="0" y1="0" x2="1" y2="1">
      <stop offset="0%" stop-color="#111827"/>
      <stop offset="100%" stop-color="#0f172a"/>
    </linearGradient>
    <linearGradient id="glow" x1="0" y1="0" x2="1" y2="0">
      <stop offset="0%" stop-color="#f97316"/>
      <stop offset="100%" stop-color="#fbbf24"/>
    </linearGradient>
  </defs>
  <rect width="720" height="560" rx="36" fill="url(#bg)"/>
  <circle cx="580" cy="120" r="90" fill="#f97316" fill-opacity="0.18"/>
  <circle cx="180" cy="110" r="110" fill="#34d399" fill-opacity="0.12"/>
  <path d="M110 340C138 285 210 248 306 236H454C509 236 568 265 604 320L634 364H86L110 340Z" fill="#1f2937" stroke="#334155" stroke-width="3"/>
  <path d="M192 238L256 190H445C486 190 524 212 550 246L570 272H182L192 238Z" fill="#0f172a" stroke="#475569" stroke-width="3"/>
  <path d="M116 332H632" stroke="url(#glow)" stroke-width="6" stroke-linecap="round"/>
  <path d="M272 204H430" stroke="#cbd5e1" stroke-width="4" stroke-linecap="round" stroke-opacity="0.6"/>
  <circle cx="212" cy="366" r="52" fill="#020617" stroke="#94a3b8" stroke-width="4"/>
  <circle cx="512" cy="366" r="52" fill="#020617" stroke="#94a3b8" stroke-width="4"/>
  <circle cx="212" cy="366" r="20" fill="#e2e8f0" fill-opacity="0.7"/>
  <circle cx="512" cy="366" r="20" fill="#e2e8f0" fill-opacity="0.7"/>
  <path d="M146 287H188" stroke="#f8fafc" stroke-width="8" stroke-linecap="round"/>
  <path d="M553 286H594" stroke="#f8fafc" stroke-width="8" stroke-linecap="round"/>
  <path d="M326 108L342 141L376 146L351 169L357 202L326 185L295 202L301 169L276 146L310 141Z" fill="url(#glow)"/>
  <text x="72" y="88" fill="#f8fafc" font-family="Bahnschrift, Franklin Gothic Medium, Trebuchet MS, sans-serif" font-size="26" letter-spacing="4">PARADISE AUTO DETAILING</text>
</svg>